<svg width="16" height="17" viewBox="0 0 16 17" fill="none" xmlns="http://www.w3.org/2000/svg">
<path d="M14.9202 2.22238H12.6376V1.26238C12.6376 1.17751 12.6032 1.09612 12.5421 1.03611C12.4809 0.976097 12.398 0.942383 12.3115 0.942383C12.225 0.942383 12.1421 0.976097 12.0809 1.03611C12.0197 1.09612 11.9854 1.17751 11.9854 1.26238V2.22238H4.81148V1.26238C4.81148 1.17751 4.77713 1.09612 4.71597 1.03611C4.65482 0.976097 4.57188 0.942383 4.48539 0.942383C4.39891 0.942383 4.31597 0.976097 4.25482 1.03611C4.19366 1.09612 4.15931 1.17751 4.15931 1.26238V2.22238H1.8767C1.61725 2.22238 1.36842 2.32353 1.18496 2.50356C1.0015 2.6836 0.898438 2.92777 0.898438 3.18238V15.9824C0.898438 16.237 1.0015 16.4812 1.18496 16.6612C1.36842 16.8412 1.61725 16.9424 1.8767 16.9424H14.9202C15.1796 16.9424 15.4285 16.8412 15.6119 16.6612C15.7954 16.4812 15.8984 16.237 15.8984 15.9824V3.18238C15.8984 2.92777 15.7954 2.6836 15.6119 2.50356C15.4285 2.32353 15.1796 2.22238 14.9202 2.22238ZM1.8767 2.86238H4.15931V3.82238C4.15931 3.90725 4.19366 3.98865 4.25482 4.04866C4.31597 4.10867 4.39891 4.14238 4.48539 4.14238C4.57188 4.14238 4.65482 4.10867 4.71597 4.04866C4.77713 3.98865 4.81148 3.90725 4.81148 3.82238V2.86238H11.9854V3.82238C11.9854 3.90725 12.0197 3.98865 12.0809 4.04866C12.1421 4.10867 12.225 4.14238 12.3115 4.14238C12.398 4.14238 12.4809 4.10867 12.5421 4.04866C12.6032 3.98865 12.6376 3.90725 12.6376 3.82238V2.86238H14.9202C15.0067 2.86238 15.0896 2.8961 15.1508 2.95611C15.2119 3.01612 15.2463 3.09751 15.2463 3.18238V6.06238H1.55061V3.18238C1.55061 3.09751 1.58497 3.01612 1.64612 2.95611C1.70727 2.8961 1.79021 2.86238 1.8767 2.86238ZM14.9202 16.3024H1.8767C1.79021 16.3024 1.70727 16.2687 1.64612 16.2087C1.58497 16.1486 1.55061 16.0673 1.55061 15.9824V6.70238H15.2463V15.9824C15.2463 16.0673 15.2119 16.1486 15.1508 16.2087C15.0896 16.2687 15.0067 16.3024 14.9202 16.3024ZM6.768 8.94238V14.0624C6.768 14.1473 6.73365 14.2286 6.67249 14.2887C6.61134 14.3487 6.5284 14.3824 6.44192 14.3824C6.35543 14.3824 6.27249 14.3487 6.21134 14.2887C6.15018 14.2286 6.11583 14.1473 6.11583 14.0624V9.45998L5.28349 9.86878C5.20609 9.90676 5.11648 9.91301 5.03438 9.88616C4.95229 9.8593 4.88442 9.80154 4.84572 9.72558C4.80702 9.64962 4.80065 9.56169 4.82802 9.48112C4.85538 9.40056 4.91424 9.33396 4.99164 9.29598L6.29599 8.65598C6.34573 8.63156 6.401 8.62003 6.45655 8.62248C6.51211 8.62493 6.5661 8.64128 6.61341 8.66998C6.66071 8.69868 6.69974 8.73877 6.7268 8.78645C6.75386 8.83413 6.76804 8.88781 6.768 8.94238ZM11.6593 11.1824L9.70279 13.7424H11.6593C11.7458 13.7424 11.8287 13.7761 11.8899 13.8361C11.951 13.8961 11.9854 13.9775 11.9854 14.0624C11.9854 14.1473 11.951 14.2286 11.8899 14.2887C11.8287 14.3487 11.7458 14.3824 11.6593 14.3824H9.05061C8.99005 14.3824 8.93069 14.3658 8.87918 14.3346C8.82766 14.3033 8.78603 14.2586 8.75895 14.2055C8.73187 14.1523 8.7204 14.0928 8.72584 14.0336C8.73128 13.9745 8.75341 13.9179 8.78974 13.8704L11.1359 10.8008C11.2647 10.6345 11.334 10.4312 11.3332 10.2224C11.3335 10.0109 11.2625 9.80518 11.1314 9.63729C11.0002 9.46941 10.8163 9.34873 10.6081 9.294C10.3999 9.23927 10.1791 9.25356 9.97998 9.33464C9.78089 9.41572 9.61467 9.55906 9.50713 9.74238C9.46201 9.81204 9.39121 9.86189 9.30952 9.88152C9.22783 9.90116 9.14157 9.88906 9.06876 9.84776C8.99594 9.80645 8.9422 9.73914 8.91877 9.65987C8.89534 9.5806 8.90402 9.49552 8.943 9.42238C9.12247 9.11738 9.39948 8.879 9.73106 8.74423C10.0626 8.60946 10.4303 8.58582 10.777 8.67697C11.1236 8.76813 11.43 8.96899 11.6485 9.24841C11.8669 9.52783 11.9854 9.87018 11.9854 10.2224C11.9866 10.5688 11.872 10.906 11.6593 11.1824Z" fill="#94723C"/>
</svg>
